<?xml version="1.0" encoding="utf-8"?>
<!-- Generator: Adobe Illustrator 27.5.0, SVG Export Plug-In . SVG Version: 6.00 Build 0)  -->
<svg version="1.1" id="Capa_1" xmlns="http://www.w3.org/2000/svg" xmlns:xlink="http://www.w3.org/1999/xlink" x="0px" y="0px"
	 viewBox="0 0 425.2 425.2" style="enable-background:new 0 0 425.2 425.2;" xml:space="preserve">
<rect x="0.002" style="fill:#A7D8DE;" width="425.196" height="425.2"/>
<g>
	<g>
		<g>
			<g>
				
					<line style="fill:none;stroke:#6599CC;stroke-width:1.5625;stroke-linecap:round;stroke-miterlimit:10;" x1="100.22" y1="128.408" x2="100.22" y2="132.088"/>
				
					<line style="fill:none;stroke:#6599CC;stroke-width:1.5625;stroke-linecap:round;stroke-miterlimit:10;" x1="100.22" y1="136.283" x2="100.22" y2="139.715"/>
				
					<line style="fill:none;stroke:#6599CC;stroke-width:1.5625;stroke-linecap:round;stroke-miterlimit:10;" x1="105.873" y1="134.063" x2="102.193" y2="134.063"/>
				
					<line style="fill:none;stroke:#6599CC;stroke-width:1.5625;stroke-linecap:round;stroke-miterlimit:10;" x1="97.998" y1="134.063" x2="94.566" y2="134.063"/>
			</g>
			<g>
				
					<line style="fill:none;stroke:#6599CC;stroke-width:1.5625;stroke-linecap:round;stroke-miterlimit:10;" x1="35.966" y1="241.576" x2="35.966" y2="245.254"/>
				
					<line style="fill:none;stroke:#6599CC;stroke-width:1.5625;stroke-linecap:round;stroke-miterlimit:10;" x1="35.966" y1="249.449" x2="35.966" y2="252.881"/>
				
					<line style="fill:none;stroke:#6599CC;stroke-width:1.5625;stroke-linecap:round;stroke-miterlimit:10;" x1="41.619" y1="247.227" x2="37.94" y2="247.227"/>
				
					<line style="fill:none;stroke:#6599CC;stroke-width:1.5625;stroke-linecap:round;stroke-miterlimit:10;" x1="33.745" y1="247.227" x2="30.313" y2="247.227"/>
			</g>
			<g>
				
					<line style="fill:none;stroke:#6599CC;stroke-width:1.5625;stroke-linecap:round;stroke-miterlimit:10;" x1="86.426" y1="204.209" x2="86.426" y2="207.887"/>
				
					<line style="fill:none;stroke:#6599CC;stroke-width:1.5625;stroke-linecap:round;stroke-miterlimit:10;" x1="86.426" y1="212.082" x2="86.426" y2="215.516"/>
				
					<line style="fill:none;stroke:#6599CC;stroke-width:1.5625;stroke-linecap:round;stroke-miterlimit:10;" x1="92.079" y1="209.861" x2="88.4" y2="209.861"/>
				
					<line style="fill:none;stroke:#6599CC;stroke-width:1.5625;stroke-linecap:round;stroke-miterlimit:10;" x1="84.206" y1="209.861" x2="80.773" y2="209.861"/>
			</g>
			<g>
				
					<line style="fill:none;stroke:#6599CC;stroke-width:1.5625;stroke-linecap:round;stroke-miterlimit:10;" x1="114.756" y1="55.604" x2="114.756" y2="59.283"/>
				
					<line style="fill:none;stroke:#6599CC;stroke-width:1.5625;stroke-linecap:round;stroke-miterlimit:10;" x1="114.756" y1="63.479" x2="114.756" y2="66.912"/>
				
					<line style="fill:none;stroke:#6599CC;stroke-width:1.5625;stroke-linecap:round;stroke-miterlimit:10;" x1="120.408" y1="61.258" x2="116.73" y2="61.258"/>
				
					<line style="fill:none;stroke:#6599CC;stroke-width:1.5625;stroke-linecap:round;stroke-miterlimit:10;" x1="112.535" y1="61.258" x2="109.103" y2="61.258"/>
			</g>
			<g>
				
					<line style="fill:none;stroke:#6599CC;stroke-width:1.5625;stroke-linecap:round;stroke-miterlimit:10;" x1="186.855" y1="37.723" x2="186.855" y2="41.4"/>
				
					<line style="fill:none;stroke:#6599CC;stroke-width:1.5625;stroke-linecap:round;stroke-miterlimit:10;" x1="186.855" y1="45.598" x2="186.855" y2="49.029"/>
				
					<line style="fill:none;stroke:#6599CC;stroke-width:1.5625;stroke-linecap:round;stroke-miterlimit:10;" x1="192.508" y1="43.377" x2="188.83" y2="43.377"/>
				
					<line style="fill:none;stroke:#6599CC;stroke-width:1.5625;stroke-linecap:round;stroke-miterlimit:10;" x1="184.635" y1="43.377" x2="181.202" y2="43.377"/>
			</g>
			<g>
				
					<line style="fill:none;stroke:#6599CC;stroke-width:1.5625;stroke-linecap:round;stroke-miterlimit:10;" x1="285.756" y1="39.943" x2="285.756" y2="43.621"/>
				
					<line style="fill:none;stroke:#6599CC;stroke-width:1.5625;stroke-linecap:round;stroke-miterlimit:10;" x1="285.756" y1="47.818" x2="285.756" y2="51.25"/>
				
					<line style="fill:none;stroke:#6599CC;stroke-width:1.5625;stroke-linecap:round;stroke-miterlimit:10;" x1="291.408" y1="45.598" x2="287.73" y2="45.598"/>
				
					<line style="fill:none;stroke:#6599CC;stroke-width:1.5625;stroke-linecap:round;stroke-miterlimit:10;" x1="283.535" y1="45.598" x2="280.103" y2="45.598"/>
			</g>
			<g>
				
					<line style="fill:none;stroke:#6599CC;stroke-width:1.5625;stroke-linecap:round;stroke-miterlimit:10;" x1="330.15" y1="132.545" x2="330.15" y2="136.225"/>
				
					<line style="fill:none;stroke:#6599CC;stroke-width:1.5625;stroke-linecap:round;stroke-miterlimit:10;" x1="330.15" y1="140.42" x2="330.15" y2="143.854"/>
				
					<line style="fill:none;stroke:#6599CC;stroke-width:1.5625;stroke-linecap:round;stroke-miterlimit:10;" x1="335.805" y1="138.199" x2="332.126" y2="138.199"/>
				
					<line style="fill:none;stroke:#6599CC;stroke-width:1.5625;stroke-linecap:round;stroke-miterlimit:10;" x1="327.932" y1="138.199" x2="324.498" y2="138.199"/>
			</g>
			<g>
				
					<line style="fill:none;stroke:#6599CC;stroke-width:1.5625;stroke-linecap:round;stroke-miterlimit:10;" x1="376.067" y1="51.789" x2="376.067" y2="55.469"/>
				
					<line style="fill:none;stroke:#6599CC;stroke-width:1.5625;stroke-linecap:round;stroke-miterlimit:10;" x1="376.067" y1="59.664" x2="376.067" y2="63.096"/>
				
					<line style="fill:none;stroke:#6599CC;stroke-width:1.5625;stroke-linecap:round;stroke-miterlimit:10;" x1="381.722" y1="57.443" x2="378.043" y2="57.443"/>
				
					<line style="fill:none;stroke:#6599CC;stroke-width:1.5625;stroke-linecap:round;stroke-miterlimit:10;" x1="373.848" y1="57.443" x2="370.415" y2="57.443"/>
			</g>
			<g>
				
					<line style="fill:none;stroke:#6599CC;stroke-width:1.5625;stroke-linecap:round;stroke-miterlimit:10;" x1="395.657" y1="120.977" x2="395.657" y2="124.654"/>
				
					<line style="fill:none;stroke:#6599CC;stroke-width:1.5625;stroke-linecap:round;stroke-miterlimit:10;" x1="395.657" y1="128.85" x2="395.657" y2="132.283"/>
				
					<line style="fill:none;stroke:#6599CC;stroke-width:1.5625;stroke-linecap:round;stroke-miterlimit:10;" x1="401.311" y1="126.629" x2="397.633" y2="126.629"/>
				
					<line style="fill:none;stroke:#6599CC;stroke-width:1.5625;stroke-linecap:round;stroke-miterlimit:10;" x1="393.438" y1="126.629" x2="390.005" y2="126.629"/>
			</g>
			<g>
				
					<line style="fill:none;stroke:#6599CC;stroke-width:1.5625;stroke-linecap:round;stroke-miterlimit:10;" x1="49.72" y1="81.916" x2="54.488" y2="81.916"/>
				
					<line style="fill:none;stroke:#6599CC;stroke-width:1.5625;stroke-linecap:round;stroke-miterlimit:10;" x1="50.99" y1="83.887" x2="55.758" y2="83.887"/>
				<path style="fill:#FFFFFF;stroke:#6599CC;stroke-width:1.0335;stroke-miterlimit:10;" d="M56.115,81.83
					c0,0.223-0.182,0.404-0.405,0.404c-0.224,0-0.404-0.182-0.404-0.404c0-0.225,0.181-0.406,0.404-0.406
					C55.934,81.424,56.115,81.605,56.115,81.83z"/>
				<path style="fill:#FFFFFF;stroke:#6599CC;stroke-width:1.0335;stroke-miterlimit:10;" d="M57.403,81.83
					c0,0.223-0.182,0.404-0.405,0.404c-0.224,0-0.406-0.182-0.406-0.404c0-0.225,0.183-0.406,0.406-0.406
					C57.222,81.424,57.403,81.605,57.403,81.83z"/>
				<path style="fill:#FFFFFF;stroke:#6599CC;stroke-width:1.0335;stroke-miterlimit:10;" d="M57.498,83.887
					c0,0.225-0.18,0.406-0.404,0.406c-0.225,0-0.406-0.182-0.406-0.406c0-0.223,0.182-0.404,0.406-0.404
					C57.318,83.482,57.498,83.664,57.498,83.887z"/>
				<path style="fill:#FFFFFF;stroke:#6599CC;stroke-width:1.0335;stroke-miterlimit:10;" d="M58.785,83.887
					c0,0.225-0.181,0.406-0.404,0.406c-0.225,0-0.405-0.182-0.405-0.406c0-0.223,0.181-0.404,0.405-0.404
					C58.604,83.482,58.785,83.664,58.785,83.887z"/>
			</g>
			<g>
				
					<line style="fill:none;stroke:#6599CC;stroke-width:1.5625;stroke-linecap:round;stroke-miterlimit:10;" x1="137.961" y1="98.758" x2="142.73" y2="98.758"/>
				
					<line style="fill:none;stroke:#6599CC;stroke-width:1.5625;stroke-linecap:round;stroke-miterlimit:10;" x1="139.232" y1="100.729" x2="144" y2="100.729"/>
				<path style="fill:#FFFFFF;stroke:#6599CC;stroke-width:1.0335;stroke-miterlimit:10;" d="M144.358,98.67
					c0,0.225-0.182,0.406-0.406,0.406c-0.224,0-0.404-0.182-0.404-0.406s0.181-0.406,0.404-0.406
					C144.177,98.264,144.358,98.445,144.358,98.67z"/>
				<path style="fill:#FFFFFF;stroke:#6599CC;stroke-width:1.0335;stroke-miterlimit:10;" d="M145.645,98.67
					c0,0.225-0.181,0.406-0.404,0.406s-0.406-0.182-0.406-0.406s0.183-0.406,0.406-0.406S145.645,98.445,145.645,98.67z"/>
				<path style="fill:#FFFFFF;stroke:#6599CC;stroke-width:1.0335;stroke-miterlimit:10;" d="M145.74,100.729
					c0,0.223-0.18,0.404-0.404,0.404c-0.225,0-0.405-0.182-0.405-0.404c0-0.223,0.181-0.404,0.405-0.404
					C145.561,100.324,145.74,100.506,145.74,100.729z"/>
				<path style="fill:#FFFFFF;stroke:#6599CC;stroke-width:1.0335;stroke-miterlimit:10;" d="M147.027,100.729
					c0,0.223-0.181,0.404-0.404,0.404c-0.225,0-0.405-0.182-0.405-0.404c0-0.223,0.181-0.404,0.405-0.404
					C146.847,100.324,147.027,100.506,147.027,100.729z"/>
			</g>
			<g>
				
					<line style="fill:none;stroke:#6599CC;stroke-width:1.5625;stroke-linecap:round;stroke-miterlimit:10;" x1="212.701" y1="69.215" x2="217.469" y2="69.215"/>
				
					<line style="fill:none;stroke:#6599CC;stroke-width:1.5625;stroke-linecap:round;stroke-miterlimit:10;" x1="213.973" y1="71.188" x2="218.74" y2="71.188"/>
				<path style="fill:#FFFFFF;stroke:#6599CC;stroke-width:1.0335;stroke-miterlimit:10;" d="M219.099,69.127
					c0,0.225-0.183,0.406-0.406,0.406c-0.224,0-0.405-0.182-0.405-0.406c0-0.223,0.182-0.404,0.405-0.404
					C218.916,68.723,219.099,68.904,219.099,69.127z"/>
				<path style="fill:#FFFFFF;stroke:#6599CC;stroke-width:1.0335;stroke-miterlimit:10;" d="M220.385,69.127
					c0,0.225-0.181,0.406-0.404,0.406c-0.225,0-0.406-0.182-0.406-0.406c0-0.223,0.182-0.404,0.406-0.404
					C220.204,68.723,220.385,68.904,220.385,69.127z"/>
				<path style="fill:#FFFFFF;stroke:#6599CC;stroke-width:1.0335;stroke-miterlimit:10;" d="M220.48,71.188
					c0,0.223-0.182,0.404-0.404,0.404c-0.225,0-0.406-0.182-0.406-0.404c0-0.225,0.182-0.406,0.406-0.406
					C220.299,70.781,220.48,70.963,220.48,71.188z"/>
				<path style="fill:#FFFFFF;stroke:#6599CC;stroke-width:1.0335;stroke-miterlimit:10;" d="M221.768,71.188
					c0,0.223-0.182,0.404-0.405,0.404s-0.405-0.182-0.405-0.404c0-0.225,0.182-0.406,0.405-0.406S221.768,70.963,221.768,71.188z"/>
			</g>
			<g>
				
					<line style="fill:none;stroke:#6599CC;stroke-width:1.5625;stroke-linecap:round;stroke-miterlimit:10;" x1="321.085" y1="60.316" x2="325.853" y2="60.316"/>
				
					<line style="fill:none;stroke:#6599CC;stroke-width:1.5625;stroke-linecap:round;stroke-miterlimit:10;" x1="322.356" y1="62.287" x2="327.123" y2="62.287"/>
				<path style="fill:#FFFFFF;stroke:#6599CC;stroke-width:1.0335;stroke-miterlimit:10;" d="M327.481,60.229
					c0,0.225-0.183,0.406-0.405,0.406c-0.225,0-0.406-0.182-0.406-0.406c0-0.223,0.182-0.404,0.406-0.404
					C327.299,59.824,327.481,60.006,327.481,60.229z"/>
				<path style="fill:#FFFFFF;stroke:#6599CC;stroke-width:1.0335;stroke-miterlimit:10;" d="M328.768,60.229
					c0,0.225-0.182,0.406-0.405,0.406c-0.224,0-0.406-0.182-0.406-0.406c0-0.223,0.183-0.404,0.406-0.404
					C328.587,59.824,328.768,60.006,328.768,60.229z"/>
				<path style="fill:#FFFFFF;stroke:#6599CC;stroke-width:1.0335;stroke-miterlimit:10;" d="M328.864,62.287
					c0,0.225-0.182,0.404-0.405,0.404c-0.225,0-0.406-0.18-0.406-0.404c0-0.225,0.182-0.406,0.406-0.406
					C328.683,61.881,328.864,62.063,328.864,62.287z"/>
				<path style="fill:#FFFFFF;stroke:#6599CC;stroke-width:1.0335;stroke-miterlimit:10;" d="M330.15,62.287
					c0,0.225-0.182,0.404-0.404,0.404c-0.224,0-0.405-0.18-0.405-0.404c0-0.225,0.182-0.406,0.405-0.406
					C329.969,61.881,330.15,62.063,330.15,62.287z"/>
			</g>
			<g>
				
					<line style="fill:none;stroke:#6599CC;stroke-width:1.5625;stroke-linecap:round;stroke-miterlimit:10;" x1="369.196" y1="94.139" x2="373.963" y2="94.139"/>
				
					<line style="fill:none;stroke:#6599CC;stroke-width:1.5625;stroke-linecap:round;stroke-miterlimit:10;" x1="370.467" y1="96.109" x2="375.234" y2="96.109"/>
				<path style="fill:#FFFFFF;stroke:#6599CC;stroke-width:1.0335;stroke-miterlimit:10;" d="M375.592,94.051
					c0,0.225-0.182,0.406-0.405,0.406s-0.405-0.182-0.405-0.406c0-0.225,0.182-0.406,0.405-0.406S375.592,93.826,375.592,94.051z"/>
				<path style="fill:#FFFFFF;stroke:#6599CC;stroke-width:1.0335;stroke-miterlimit:10;" d="M376.88,94.051
					c0,0.225-0.183,0.406-0.406,0.406s-0.405-0.182-0.405-0.406c0-0.225,0.182-0.406,0.405-0.406S376.88,93.826,376.88,94.051z"/>
				<path style="fill:#FFFFFF;stroke:#6599CC;stroke-width:1.0335;stroke-miterlimit:10;" d="M376.974,96.109
					c0,0.223-0.181,0.404-0.404,0.404c-0.224,0-0.405-0.182-0.405-0.404c0-0.225,0.182-0.406,0.405-0.406
					C376.793,95.703,376.974,95.885,376.974,96.109z"/>
				<path style="fill:#FFFFFF;stroke:#6599CC;stroke-width:1.0335;stroke-miterlimit:10;" d="M378.262,96.109
					c0,0.223-0.182,0.404-0.406,0.404c-0.223,0-0.404-0.182-0.404-0.404c0-0.225,0.182-0.406,0.404-0.406
					C378.08,95.703,378.262,95.885,378.262,96.109z"/>
			</g>
			<g>
				
					<line style="fill:none;stroke:#6599CC;stroke-width:1.5625;stroke-linecap:round;stroke-miterlimit:10;" x1="348.851" y1="235.484" x2="353.618" y2="235.484"/>
				
					<line style="fill:none;stroke:#6599CC;stroke-width:1.5625;stroke-linecap:round;stroke-miterlimit:10;" x1="350.122" y1="237.455" x2="354.889" y2="237.455"/>
				<path style="fill:#FFFFFF;stroke:#6599CC;stroke-width:1.0335;stroke-miterlimit:10;" d="M355.247,235.396
					c0,0.225-0.183,0.406-0.406,0.406s-0.405-0.182-0.405-0.406c0-0.225,0.182-0.406,0.405-0.406S355.247,235.172,355.247,235.396z"
					/>
				<path style="fill:#FFFFFF;stroke:#6599CC;stroke-width:1.0335;stroke-miterlimit:10;" d="M356.534,235.396
					c0,0.225-0.182,0.406-0.405,0.406s-0.406-0.182-0.406-0.406c0-0.225,0.183-0.406,0.406-0.406S356.534,235.172,356.534,235.396z"
					/>
				<path style="fill:#FFFFFF;stroke:#6599CC;stroke-width:1.0335;stroke-miterlimit:10;" d="M356.63,237.455
					c0,0.225-0.182,0.404-0.405,0.404c-0.225,0-0.406-0.18-0.406-0.404c0-0.223,0.182-0.406,0.406-0.406
					C356.448,237.049,356.63,237.232,356.63,237.455z"/>
				<path style="fill:#FFFFFF;stroke:#6599CC;stroke-width:1.0335;stroke-miterlimit:10;" d="M357.916,237.455
					c0,0.225-0.181,0.404-0.404,0.404c-0.225,0-0.405-0.18-0.405-0.404c0-0.223,0.181-0.406,0.405-0.406
					C357.735,237.049,357.916,237.232,357.916,237.455z"/>
			</g>
			<g>
				
					<line style="fill:none;stroke:#6599CC;stroke-width:1.5625;stroke-linecap:round;stroke-miterlimit:10;" x1="371.579" y1="201.49" x2="371.579" y2="205.17"/>
				
					<line style="fill:none;stroke:#6599CC;stroke-width:1.5625;stroke-linecap:round;stroke-miterlimit:10;" x1="371.579" y1="209.365" x2="371.579" y2="212.799"/>
				
					<line style="fill:none;stroke:#6599CC;stroke-width:1.5625;stroke-linecap:round;stroke-miterlimit:10;" x1="377.232" y1="207.145" x2="373.554" y2="207.145"/>
				
					<line style="fill:none;stroke:#6599CC;stroke-width:1.5625;stroke-linecap:round;stroke-miterlimit:10;" x1="369.359" y1="207.145" x2="365.927" y2="207.145"/>
			</g>
			<g>
				
					<line style="fill:none;stroke:#6599CC;stroke-width:1.5625;stroke-linecap:round;stroke-miterlimit:10;" x1="394.387" y1="161.359" x2="399.155" y2="161.359"/>
				
					<line style="fill:none;stroke:#6599CC;stroke-width:1.5625;stroke-linecap:round;stroke-miterlimit:10;" x1="395.658" y1="163.33" x2="400.426" y2="163.33"/>
				<path style="fill:#FFFFFF;stroke:#6599CC;stroke-width:1.0335;stroke-miterlimit:10;" d="M400.783,161.271
					c0,0.223-0.182,0.404-0.405,0.404s-0.405-0.182-0.405-0.404c0-0.225,0.182-0.406,0.405-0.406S400.783,161.047,400.783,161.271z"
					/>
				<path style="fill:#FFFFFF;stroke:#6599CC;stroke-width:1.0335;stroke-miterlimit:10;" d="M402.07,161.271
					c0,0.223-0.181,0.404-0.404,0.404c-0.225,0-0.406-0.182-0.406-0.404c0-0.225,0.182-0.406,0.406-0.406
					C401.89,160.865,402.07,161.047,402.07,161.271z"/>
				<path style="fill:#FFFFFF;stroke:#6599CC;stroke-width:1.0335;stroke-miterlimit:10;" d="M402.166,163.33
					c0,0.225-0.181,0.404-0.404,0.404c-0.226,0-0.406-0.18-0.406-0.404c0-0.225,0.181-0.406,0.406-0.406
					C401.985,162.924,402.166,163.105,402.166,163.33z"/>
				<path style="fill:#FFFFFF;stroke:#6599CC;stroke-width:1.0335;stroke-miterlimit:10;" d="M403.453,163.33
					c0,0.225-0.182,0.404-0.404,0.404c-0.225,0-0.405-0.18-0.405-0.404c0-0.225,0.181-0.406,0.405-0.406
					C403.272,162.924,403.453,163.105,403.453,163.33z"/>
			</g>
			<g>
				
					<line style="fill:none;stroke:#6599CC;stroke-width:1.5625;stroke-linecap:round;stroke-miterlimit:10;" x1="72.288" y1="340" x2="72.288" y2="343.68"/>
				
					<line style="fill:none;stroke:#6599CC;stroke-width:1.5625;stroke-linecap:round;stroke-miterlimit:10;" x1="72.288" y1="347.873" x2="72.288" y2="351.307"/>
				
					<line style="fill:none;stroke:#6599CC;stroke-width:1.5625;stroke-linecap:round;stroke-miterlimit:10;" x1="77.941" y1="345.652" x2="74.263" y2="345.652"/>
				
					<line style="fill:none;stroke:#6599CC;stroke-width:1.5625;stroke-linecap:round;stroke-miterlimit:10;" x1="70.066" y1="345.652" x2="66.635" y2="345.652"/>
			</g>
			<g>
				
					<line style="fill:none;stroke:#6599CC;stroke-width:1.5625;stroke-linecap:round;stroke-miterlimit:10;" x1="344.468" y1="294.654" x2="344.468" y2="298.332"/>
				
					<line style="fill:none;stroke:#6599CC;stroke-width:1.5625;stroke-linecap:round;stroke-miterlimit:10;" x1="344.468" y1="302.529" x2="344.468" y2="305.961"/>
				
					<line style="fill:none;stroke:#6599CC;stroke-width:1.5625;stroke-linecap:round;stroke-miterlimit:10;" x1="350.122" y1="300.309" x2="346.443" y2="300.309"/>
				
					<line style="fill:none;stroke:#6599CC;stroke-width:1.5625;stroke-linecap:round;stroke-miterlimit:10;" x1="342.248" y1="300.309" x2="338.814" y2="300.309"/>
			</g>
			<g>
				
					<line style="fill:none;stroke:#6599CC;stroke-width:1.5625;stroke-linecap:round;stroke-miterlimit:10;" x1="385.472" y1="290.717" x2="390.24" y2="290.717"/>
				
					<line style="fill:none;stroke:#6599CC;stroke-width:1.5625;stroke-linecap:round;stroke-miterlimit:10;" x1="386.743" y1="292.689" x2="391.511" y2="292.689"/>
				<path style="fill:#FFFFFF;stroke:#6599CC;stroke-width:1.0335;stroke-miterlimit:10;" d="M391.868,290.629
					c0,0.225-0.183,0.406-0.405,0.406c-0.225,0-0.406-0.182-0.406-0.406c0-0.223,0.182-0.404,0.406-0.404
					C391.685,290.225,391.868,290.406,391.868,290.629z"/>
				<path style="fill:#FFFFFF;stroke:#6599CC;stroke-width:1.0335;stroke-miterlimit:10;" d="M393.155,290.629
					c0,0.225-0.182,0.406-0.405,0.406c-0.224,0-0.406-0.182-0.406-0.406c0-0.223,0.183-0.404,0.406-0.404
					C392.974,290.225,393.155,290.406,393.155,290.629z"/>
				<path style="fill:#FFFFFF;stroke:#6599CC;stroke-width:1.0335;stroke-miterlimit:10;" d="M393.25,292.689
					c0,0.223-0.181,0.402-0.404,0.402c-0.225,0-0.406-0.18-0.406-0.402c0-0.225,0.182-0.406,0.406-0.406
					C393.069,292.283,393.25,292.465,393.25,292.689z"/>
				<path style="fill:#FFFFFF;stroke:#6599CC;stroke-width:1.0335;stroke-miterlimit:10;" d="M394.537,292.689
					c0,0.223-0.181,0.402-0.404,0.402s-0.405-0.18-0.405-0.402c0-0.225,0.182-0.406,0.405-0.406S394.537,292.465,394.537,292.689z"
					/>
			</g>
			<g>
				
					<line style="fill:none;stroke:#6599CC;stroke-width:1.5625;stroke-linecap:round;stroke-miterlimit:10;" x1="21.747" y1="150.135" x2="26.514" y2="150.135"/>
				
					<line style="fill:none;stroke:#6599CC;stroke-width:1.5625;stroke-linecap:round;stroke-miterlimit:10;" x1="23.018" y1="152.107" x2="27.785" y2="152.107"/>
				<path style="fill:#FFFFFF;stroke:#6599CC;stroke-width:1.0335;stroke-miterlimit:10;" d="M28.143,150.047
					c0,0.225-0.181,0.406-0.404,0.406c-0.225,0-0.404-0.182-0.404-0.406c0-0.223,0.18-0.404,0.404-0.404
					C27.962,149.643,28.143,149.824,28.143,150.047z"/>
				<path style="fill:#FFFFFF;stroke:#6599CC;stroke-width:1.0335;stroke-miterlimit:10;" d="M29.431,150.047
					c0,0.225-0.183,0.406-0.405,0.406c-0.225,0-0.405-0.182-0.405-0.406c0-0.223,0.181-0.404,0.405-0.404
					C29.248,149.643,29.431,149.824,29.431,150.047z"/>
				<path style="fill:#FFFFFF;stroke:#6599CC;stroke-width:1.0335;stroke-miterlimit:10;" d="M29.525,152.107
					c0,0.223-0.182,0.404-0.405,0.404s-0.404-0.182-0.404-0.404c0-0.225,0.181-0.406,0.404-0.406S29.525,151.883,29.525,152.107z"/>
				<path style="fill:#FFFFFF;stroke:#6599CC;stroke-width:1.0335;stroke-miterlimit:10;" d="M30.813,152.107
					c0,0.223-0.183,0.404-0.405,0.404c-0.225,0-0.405-0.182-0.405-0.404c0-0.225,0.181-0.406,0.405-0.406
					C30.631,151.701,30.813,151.883,30.813,152.107z"/>
			</g>
			<g>
				
					<line style="fill:none;stroke:#6599CC;stroke-width:1.5625;stroke-linecap:round;stroke-miterlimit:10;" x1="83.867" y1="300.309" x2="88.636" y2="300.309"/>
				
					<line style="fill:none;stroke:#6599CC;stroke-width:1.5625;stroke-linecap:round;stroke-miterlimit:10;" x1="85.14" y1="302.279" x2="89.906" y2="302.279"/>
				<path style="fill:#FFFFFF;stroke:#6599CC;stroke-width:1.0335;stroke-miterlimit:10;" d="M90.265,300.221
					c0,0.223-0.183,0.404-0.406,0.404c-0.224,0-0.404-0.182-0.404-0.404c0-0.225,0.181-0.406,0.404-0.406
					C90.082,299.814,90.265,299.996,90.265,300.221z"/>
				<path style="fill:#FFFFFF;stroke:#6599CC;stroke-width:1.0335;stroke-miterlimit:10;" d="M91.551,300.221
					c0,0.223-0.181,0.404-0.404,0.404c-0.225,0-0.406-0.182-0.406-0.404c0-0.225,0.182-0.406,0.406-0.406
					C91.37,299.814,91.551,299.996,91.551,300.221z"/>
				<path style="fill:#FFFFFF;stroke:#6599CC;stroke-width:1.0335;stroke-miterlimit:10;" d="M91.646,302.279
					c0,0.223-0.182,0.404-0.404,0.404c-0.225,0-0.406-0.182-0.406-0.404c0-0.225,0.182-0.406,0.406-0.406
					C91.465,301.873,91.646,302.055,91.646,302.279z"/>
				<path style="fill:#FFFFFF;stroke:#6599CC;stroke-width:1.0335;stroke-miterlimit:10;" d="M92.934,302.279
					c0,0.223-0.181,0.404-0.404,0.404c-0.225,0-0.405-0.182-0.405-0.404c0-0.225,0.181-0.406,0.405-0.406
					C92.753,301.873,92.934,302.055,92.934,302.279z"/>
			</g>
		</g>
		<g>
			
				<ellipse transform="matrix(0.7071 -0.7071 0.7071 0.7071 -91.4369 220.8846)" style="fill:none;stroke:#6599CC;stroke-width:2.2693;stroke-linecap:round;stroke-miterlimit:10;stroke-dasharray:4.553,4.553;" cx="220.913" cy="220.816" rx="166.66" ry="166.66"/>
		</g>
	</g>
	<g>
		<g>
			<g>
				<path style="fill:#73BCCC;" d="M299.805,227.664c-4.232,3.74-4.634,10.203-0.895,14.438c3.741,4.234,10.205,4.633,14.438,0.895
					c4.234-3.74,4.637-10.203,0.897-14.438C310.505,224.322,304.039,223.924,299.805,227.664z M311.836,241.285
					c-3.288,2.902-8.308,2.592-11.213-0.697c-2.904-3.287-2.593-8.309,0.695-11.211c3.287-2.904,8.307-2.594,11.213,0.695
					C315.435,233.359,315.124,238.379,311.836,241.285z"/>
				
					<rect x="312.517" y="241.389" transform="matrix(0.7489 -0.6627 0.6627 0.7489 -82.6921 269.3253)" style="fill:#73BCCC;" width="3.047" height="4.778"/>
				<path style="fill:#73BCCC;" d="M323.605,250.826c1.098,1.246,1.342,2.59-0.004,3.779c-1.345,1.188-2.597,0.842-3.749-0.465
					c-1.152-1.307-7.466-8.451-7.466-8.451l3.753-3.314C316.14,242.375,322.506,249.582,323.605,250.826z"/>
			</g>
			<path style="fill:#73BCCC;" d="M309.379,237.021c0.357,0.406,0.32,1.025-0.086,1.383l0,0c-0.405,0.359-1.023,0.32-1.382-0.084
				l-4.136-4.682c-0.358-0.408-0.32-1.027,0.086-1.383l0,0c0.404-0.359,1.023-0.32,1.383,0.082L309.379,237.021z"/>
			<path style="fill:#73BCCC;" d="M304.884,238.131c-0.404,0.357-1.024,0.322-1.383-0.084l0,0c-0.357-0.408-0.318-1.025,0.086-1.383
				l4.683-4.137c0.404-0.357,1.023-0.318,1.383,0.088l0,0c0.357,0.404,0.319,1.023-0.086,1.381L304.884,238.131z"/>
		</g>
	</g>
	<g>
		<path style="fill:#73BCCC;" d="M129.179,173.805l-6.977-1.014c-1.973-0.287-4.308-1.984-5.188-3.77l-3.121-6.32
			c-0.88-1.789-2.324-1.789-3.207,0l-3.117,6.32c-0.883,1.785-3.217,3.482-5.189,3.77l-6.977,1.014
			c-1.974,0.285-2.419,1.658-0.991,3.051l5.05,4.922c1.425,1.389,2.316,4.133,1.98,6.098l-1.193,6.949
			c-0.336,1.961,0.83,2.811,2.596,1.885l6.24-3.281c1.765-0.928,4.649-0.928,6.412,0l6.24,3.281
			c1.764,0.926,2.932,0.076,2.596-1.885l-1.192-6.949c-0.336-1.965,0.555-4.709,1.981-6.098l5.048-4.922
			C131.598,175.463,131.151,174.09,129.179,173.805z M127.635,177.285l-4.354,4.193c-0.543,0.523-0.989,1.273-1.304,2.09
			l-10.081-4.305c0,0,6.467,10.984,10.189,15.135c-0.404,0.291-1.032,0.271-1.788-0.131l-5.334-2.848
			c-0.864-0.461-2.047-0.662-3.186-0.604c0.118-3.014,0.118-11.553,0.118-11.553s-6.131,9.654-9.587,15.014
			c-0.403-0.293-0.577-0.898-0.429-1.74l1.059-5.951c0.164-0.922,0.014-2.041-0.354-3.066c1.954-0.844,9.311-4.256,9.311-4.256
			l-8.07-5.609c0.851-0.117,1.785-0.543,2.6-1.131c0.802-0.578,1.487-1.318,1.868-2.074l2.709-5.402
			c0.256-0.514,0.567-0.838,0.894-1.004v15.221l16.46-3.275C128.337,176.387,128.102,176.836,127.635,177.285z"/>
	</g>
	<g>
		<path style="fill:#73BCCC;" d="M308.2,173.557c-0.278-0.023-0.61,0.01-1.002,0.117c-0.134,0.035-0.269,0.074-0.4,0.127
			l-22.569,8.645c-0.133,0.051-0.26,0.109-0.383,0.172c-0.363,0.18-0.635,0.379-0.825,0.58c-1.089,1.014-1.517,2.621-0.954,4.092
			l4.419,11.537c0.526,1.375,1.777,2.258,3.15,2.389c0.446,0.107,1.011,0.035,1.694-0.227l22.57-8.643
			c0.684-0.264,1.15-0.586,1.412-0.963c0.934-1.016,1.275-2.508,0.749-3.883l-4.419-11.537
			C311.08,174.492,309.685,173.58,308.2,173.557z M309.815,176.662l4.419,11.537c0.125,0.324,0.142,0.662,0.081,0.98
			c-0.218-0.076-0.46-0.141-0.734-0.191l-9.633-1.717l5.404-10.633c0.077-0.152,0.141-0.299,0.192-0.436
			C309.653,176.34,309.75,176.488,309.815,176.662z M307.498,175.627c0.065-0.023,0.128-0.035,0.192-0.051
			c-0.022,0.053-0.049,0.109-0.082,0.174l-6.56,12.908c-0.225,0.439-0.624,0.789-1.125,0.982c-0.502,0.193-1.032,0.199-1.493,0.021
			l-13.503-5.225c-0.069-0.027-0.126-0.051-0.178-0.076c0.059-0.031,0.114-0.066,0.178-0.09L307.498,175.627z M288.906,198.91
			c-0.258-0.195-0.47-0.459-0.594-0.783l-4.419-11.537c-0.066-0.174-0.095-0.35-0.106-0.523c0.132,0.068,0.274,0.133,0.435,0.195
			l11.125,4.305l-6.021,7.713C289.154,198.498,289.018,198.707,288.906,198.91z M291.327,198.893l5.927-7.59l0.471,0.182
			c0.914,0.354,1.943,0.348,2.898-0.018c0.955-0.365,1.725-1.047,2.17-1.922l0.229-0.451l9.48,1.691L291.327,198.893z"/>
	</g>
	<g>
		<path style="fill:#73BCCC;" d="M96.728,76.84h-0.064v-3.631l0,0c-0.165-3.844-3.328-6.904-7.209-6.904
			c-3.882,0-7.046,3.06-7.21,6.904l0,0v3.631H82.18c-1.424,0-2.577,1.154-2.577,2.576v14.549c0,1.424,1.153,2.578,2.577,2.578
			h14.548c1.423,0,2.578-1.154,2.578-2.578V79.416C99.306,77.994,98.15,76.84,96.728,76.84z M84.693,73.209
			c0.161-2.494,2.227-4.465,4.761-4.465c2.532,0,4.599,1.971,4.76,4.465h-0.007v3.631H84.7v-3.631H84.693z M90.678,87.859
			l0.465,2.525h-3.36l0.494-2.504c-0.835-0.428-1.407-1.295-1.407-2.297c0-1.428,1.157-2.586,2.585-2.586
			c1.427,0,2.583,1.158,2.583,2.586C92.037,86.566,91.487,87.422,90.678,87.859z"/>
	</g>
	<g>
		<path style="fill:#73BCCC;" d="M181.203,73.775c-8.026,0-14.557,6.529-14.557,14.557c0,8.025,6.53,14.557,14.557,14.557
			c8.026,0,14.556-6.531,14.556-14.557C195.759,80.305,189.23,73.775,181.203,73.775z M193.101,81.629
			c-0.79-0.9-1.732-1.707-2.8-2.395c-0.688-1.068-1.496-2.01-2.395-2.801C190.073,77.66,191.874,79.459,193.101,81.629z
			 M181.647,81.957c1.883,0.031,3.681,0.248,5.314,0.617c0.366,1.633,0.584,3.43,0.614,5.313h-5.929V81.957z M181.647,81.07v-3.506
			c1.286,0.033,2.531,0.199,3.707,0.496c0.539,1.006,1.002,2.197,1.364,3.525C185.153,81.273,183.446,81.096,181.647,81.07z
			 M181.647,76.678v-1.963c1.126,0.176,2.184,0.996,3.086,2.305C183.739,76.822,182.708,76.703,181.647,76.678z M180.759,76.678
			c-1.063,0.025-2.094,0.145-3.086,0.342c0.902-1.309,1.96-2.129,3.086-2.305V76.678z M180.759,77.564v3.506
			c-1.8,0.025-3.507,0.203-5.071,0.516c0.361-1.328,0.823-2.52,1.363-3.525C178.227,77.762,179.471,77.598,180.759,77.564z
			 M180.759,81.957v5.93h-5.93c0.03-1.883,0.248-3.68,0.614-5.313C177.077,82.205,178.874,81.988,180.759,81.957z M173.94,87.887
			h-3.506c0.033-1.287,0.2-2.531,0.496-3.705c1.006-0.541,2.197-1.004,3.525-1.365C174.143,84.381,173.967,86.088,173.94,87.887z
			 M169.548,87.887h-1.964c0.176-1.125,0.998-2.184,2.308-3.084C169.691,85.795,169.573,86.826,169.548,87.887z M169.548,88.775
			c0.025,1.063,0.144,2.094,0.344,3.086c-1.31-0.9-2.132-1.959-2.308-3.086H169.548z M170.435,88.775h3.506
			c0.026,1.801,0.203,3.508,0.516,5.072c-1.328-0.361-2.52-0.824-3.525-1.365C170.635,91.307,170.468,90.064,170.435,88.775z
			 M174.829,88.775h5.93v5.93c-1.885-0.029-3.682-0.248-5.316-0.613C175.077,92.457,174.859,90.66,174.829,88.775z M180.759,95.594
			V99.1c-1.288-0.033-2.532-0.199-3.708-0.494c-0.54-1.008-1.002-2.199-1.363-3.527C177.252,95.391,178.959,95.568,180.759,95.594z
			 M180.759,99.986v1.965c-1.126-0.176-2.186-0.998-3.086-2.307C178.665,99.844,179.696,99.961,180.759,99.986z M181.647,99.986
			c1.061-0.025,2.092-0.143,3.086-0.342c-0.901,1.309-1.96,2.131-3.086,2.307V99.986z M181.647,99.1v-3.506
			c1.799-0.025,3.506-0.203,5.071-0.516c-0.362,1.328-0.825,2.52-1.364,3.527C184.179,98.9,182.934,99.066,181.647,99.1z
			 M181.647,94.705v-5.93h5.929c-0.03,1.885-0.248,3.682-0.614,5.316C185.328,94.459,183.53,94.676,181.647,94.705z M188.465,88.775
			h3.505c-0.033,1.289-0.197,2.531-0.494,3.707c-1.007,0.541-2.198,1.004-3.527,1.365C188.261,92.283,188.439,90.574,188.465,88.775
			z M192.856,88.775h1.964c-0.175,1.127-0.997,2.186-2.308,3.086C192.714,90.869,192.831,89.838,192.856,88.775z M192.856,87.887
			c-0.025-1.061-0.143-2.092-0.342-3.084c1.309,0.9,2.131,1.959,2.306,3.084H192.856z M191.97,87.887h-3.505
			c-0.026-1.799-0.204-3.506-0.517-5.07c1.329,0.361,2.521,0.824,3.527,1.365C191.772,85.355,191.936,86.6,191.97,87.887z
			 M187.722,81.813c-0.306-1.252-0.698-2.393-1.164-3.402c1.121,0.379,2.158,0.877,3.102,1.465c0.588,0.943,1.086,1.98,1.464,3.102
			C190.114,82.512,188.974,82.117,187.722,81.813z M186,77.324c-0.452-0.785-0.953-1.457-1.495-1.998
			c1.472,0.602,2.799,1.598,3.92,2.885C187.658,77.857,186.847,77.561,186,77.324z M176.405,77.322
			c-0.846,0.238-1.656,0.535-2.424,0.889c1.12-1.287,2.447-2.283,3.919-2.885C177.358,75.867,176.856,76.539,176.405,77.322z
			 M175.847,78.41c-0.465,1.01-0.857,2.15-1.164,3.402c-1.251,0.305-2.393,0.699-3.4,1.164c0.377-1.121,0.877-2.158,1.465-3.102
			C173.689,79.287,174.727,78.789,175.847,78.41z M170.194,83.535c-0.785,0.449-1.456,0.953-1.998,1.494
			c0.601-1.471,1.6-2.799,2.886-3.92C170.729,81.877,170.433,82.688,170.194,83.535z M170.194,93.129
			c0.238,0.848,0.533,1.658,0.888,2.426c-1.286-1.121-2.285-2.449-2.887-3.92C168.738,92.176,169.409,92.678,170.194,93.129z
			 M171.282,93.688c1.008,0.465,2.149,0.857,3.4,1.164c0.307,1.25,0.699,2.393,1.164,3.402c-1.119-0.379-2.157-0.877-3.1-1.465
			C172.159,95.846,171.659,94.809,171.282,93.688z M176.405,99.34c0.451,0.785,0.953,1.457,1.495,2
			c-1.472-0.604-2.799-1.602-3.921-2.887C174.747,98.807,175.559,99.102,176.405,99.34z M186,99.34
			c0.847-0.238,1.658-0.533,2.425-0.887c-1.12,1.285-2.448,2.283-3.92,2.887C185.047,100.797,185.548,100.125,186,99.34z
			 M186.558,98.254c0.466-1.01,0.858-2.152,1.164-3.402c1.252-0.307,2.393-0.699,3.401-1.164c-0.378,1.121-0.876,2.158-1.464,3.1
			C188.716,97.377,187.679,97.875,186.558,98.254z M192.211,93.129c0.785-0.451,1.457-0.953,1.999-1.494
			c-0.602,1.471-1.602,2.799-2.887,3.92C191.677,94.787,191.973,93.977,192.211,93.129z M192.211,83.535
			c-0.238-0.848-0.534-1.658-0.888-2.426c1.285,1.121,2.285,2.449,2.885,3.92C193.668,84.488,192.996,83.984,192.211,83.535z
			 M174.5,76.434c-0.901,0.791-1.706,1.732-2.395,2.801c-1.068,0.688-2.009,1.494-2.801,2.395
			C170.531,79.459,172.331,77.66,174.5,76.434z M169.304,95.033c0.791,0.9,1.732,1.709,2.801,2.398
			c0.689,1.066,1.494,2.008,2.395,2.799C172.331,99.004,170.531,97.203,169.304,95.033z M187.905,100.23
			c0.899-0.791,1.707-1.732,2.395-2.801c1.067-0.688,2.01-1.496,2.801-2.396C191.874,97.203,190.073,99.004,187.905,100.23z"/>
	</g>
	<g>
		<g>
			<path style="fill:#73BCCC;" d="M92.334,265.685c0,2.766-3.207,5.012-7.165,5.012c-3.957,0-7.164-2.246-7.164-5.012
				c0-2.77,3.207-5.016,7.164-5.016C89.127,260.67,92.334,262.916,92.334,265.685z"/>
			<rect x="89.661" y="237.867" style="fill:#73BCCC;" width="2.673" height="27.818"/>
			<path style="fill:#73BCCC;" d="M97.352,243.605c-1.563-2.545-3.766-1.098-4.994-4.394c-0.008,2.258-0.03,7.336-0.03,7.336
				s5.698,0.307,5.683,4.258c0.49,0,0.785,0.002,0.785,0.002S98.912,246.15,97.352,243.605z"/>
		</g>
	</g>
	<g>
		<path style="fill:#73BCCC;" d="M360.045,79.109c0.039-2.809-0.111-5.34-0.693-6.299c-1.578-2.598-7.795-5.01-7.795-5.01
			l-0.465-1.006c2.236-2.313,3.705-6.209,3.705-10.631c0-7.09-3.781-9.889-8.444-9.889c-4.665,0-8.446,2.799-8.446,9.889
			c0,4.689,1.658,8.781,4.127,11.021l-0.217,0.615c0,0-7.238,2.598-8.443,5.01c-0.449,0.9-0.564,3.451-0.531,6.299H360.045z"/>
	</g>
	<g>
		<g>
			<path style="fill:#73BCCC;" d="M288.876,102.889c-6.222,0-11.267,5.045-11.267,11.27c0,6.221,5.045,11.264,11.267,11.264
				c6.223,0,11.266-5.043,11.266-11.264C300.142,107.934,295.099,102.889,288.876,102.889z M288.876,121.355
				c-3.978,0-7.2-3.221-7.2-7.197c0-3.979,3.223-7.201,7.2-7.201c3.975,0,7.2,3.223,7.2,7.201
				C296.076,118.135,292.852,121.355,288.876,121.355z"/>
			<path style="fill:#73BCCC;" d="M288.876,108.797c-2.961,0-5.361,2.398-5.361,5.361
				C283.515,117.117,291.837,108.797,288.876,108.797z"/>
			<path style="fill:#73BCCC;" d="M309.64,106.957v-3.58c0-1.486-1.206-2.693-2.691-2.693h-0.56V99.5h-7.935v1.184h-1.927v-1.477
				c0-1.424-1.939-2.578-2.365-2.578h-10.176c-0.426,0-2.762,1.154-2.762,2.578v1.477h-3.063V99.5h-6.119v1.184h-0.541
				c-1.485,0-2.691,1.207-2.691,2.693v3.58h0.281v15.713h-0.281v3.58c0,1.486,1.206,2.691,2.691,2.691h35.446
				c1.485,0,2.691-1.205,2.691-2.691v-3.58h-0.282v-15.713H309.64z M288.876,126.697c-6.927,0-12.54-5.615-12.54-12.539
				c0-6.928,5.613-12.543,12.54-12.543c6.926,0,12.54,5.615,12.54,12.543C301.416,121.082,295.802,126.697,288.876,126.697z
				 M306.209,108.938v1.949c0,0.619-0.502,1.123-1.123,1.123s-1.122-0.504-1.122-1.123v-1.949c-0.451-0.34-0.748-0.877-0.748-1.486
				c0-1.033,0.838-1.871,1.87-1.871c1.033,0,1.87,0.838,1.87,1.871C306.956,108.061,306.66,108.598,306.209,108.938z"/>
		</g>
	</g>
</g>
<g>
	<path style="fill:#706F6F;" d="M312.908,375.349c0,4.116-3.369,7.483-7.486,7.483H119.777c-4.117,0-7.487-3.367-7.487-7.483
		V258.293c0-4.117,3.37-7.486,7.487-7.486h185.645c4.117,0,7.486,3.369,7.486,7.486V375.349z"/>
	<path style="fill:#EDEDED;" d="M312.908,380.958c0,4.118-3.369,7.485-7.486,7.485H119.777c-4.117,0-7.487-3.367-7.487-7.485
		V263.905c0-4.12,3.37-7.484,7.487-7.484h185.645c4.117,0,7.486,3.364,7.486,7.484V380.958z"/>
	<path style="fill:#706F6F;" d="M216.988,260.821c0,2.427-1.964,4.392-4.389,4.392c-2.424,0-4.391-1.965-4.391-4.392
		c0-2.421,1.967-4.387,4.391-4.387C215.024,256.435,216.988,258.4,216.988,260.821z"/>
	<rect x="115.562" y="268.301" style="fill:#A1D2D9;" width="194.075" height="110.242"/>
	<polygon style="fill:#FFFFFF;" points="122.726,374.473 122.726,272.372 302.472,272.372 	"/>
	<path style="fill:#C6C6C6;" d="M312.477,382.832H126.83c-4.116,0-7.485-3.367-7.485-7.483V258.293c0-0.642,0.091-1.263,0.246-1.858
		c-3.974,0.166-7.177,3.456-7.177,7.471v117.053c0,4.118,3.368,7.485,7.484,7.485h185.646c3.475,0,6.406-2.402,7.241-5.625
		C312.682,382.82,312.58,382.832,312.477,382.832z"/>
	<g>
		<path style="fill:#EDEDED;" d="M327.901,396.944c0,4.698-4.369,8.502-9.754,8.502H107.053c-5.387,0-9.754-3.804-9.754-8.502l0,0
			c0-4.695,4.367-8.501,9.754-8.501h211.095C323.532,388.443,327.901,392.249,327.901,396.944L327.901,396.944z"/>
		<path style="fill:#C6C6C6;" d="M97.415,395.946c-0.045,0.329-0.116,0.655-0.116,0.998c0,4.698,4.367,8.502,9.754,8.502h211.095
			c5.385,0,9.754-3.804,9.754-8.502c0-0.343-0.071-0.669-0.116-0.998H97.415z"/>
		<rect x="97.299" y="388.443" style="fill:#706F6F;" width="230.602" height="8.501"/>
	</g>
</g>
<g>
	<path style="fill:#F9BB8D;" d="M263.685,378.272h21.962l2.469-44.198c0.026-0.492,0.028-1.002,0-1.503
		c-0.415-7.429-6.773-13.113-14.2-12.7c-7.432,0.417-13.114,6.774-12.699,14.203L263.685,378.272z"/>
	<path style="fill:#F9BB8D;" d="M161.501,378.272l4.284-43.634c0.048-0.486,0.072-0.996,0.066-1.499
		c-0.105-7.438-6.218-13.388-13.655-13.286c-7.44,0.102-13.389,6.214-13.285,13.652l0.607,44.767H161.501z"/>
	<path style="fill:#45BABD;" d="M261.617,343.5l0.845,17.124c0,0,22.263,7.097,28.587-4.291
		c-1.826-27.299,2.128-59.376-20.496-70.579C255.445,278.276,261.617,343.5,261.617,343.5z"/>
	<polygon style="fill:#00A6B0;" points="264.76,378.272 270.553,285.754 249.932,280.09 242.117,277.938 185.768,277.938 
		178.252,280.138 159.406,285.658 162.436,378.272 	"/>
	<polygon style="fill:#F9BB8D;" points="188.211,277.931 212.723,303.06 239.836,277.931 228.06,275.18 228.588,243.77 
		200.107,245.114 199.316,275.18 	"/>
	<path style="fill:#EAD6D5;" d="M228.326,259.527l0.93-15.914h-33.064l1.735,16.023c0,0,9.019,11.625,18.118,10.423
		C225.15,268.861,228.326,259.527,228.326,259.527z"/>
	<path style="fill:#F9BB8D;" d="M259.184,185.249c0.646,8.245-0.854,37.456-2.123,44.984c-3.459,20.487-26.355,34.731-44.424,34.731
		c-18.069,0-38.639-12.731-42.887-34.731c-1.692-8.77-2.609-32.337-2.609-42.347c0-41.689,18.668-51.164,45.496-51.164
		C239.469,136.723,255.324,136.09,259.184,185.249z"/>
	<path style="fill:#683C11;" d="M180.735,190.746c0.852,0.702-0.024-2.605,9.52-3.238c2.681-0.176,9.913,1.464,9.829-0.061
		c-0.08-1.521,0.432-4.057-2.252-4.139c-4.092-0.128-10.21-0.106-13.115,1.462C180.789,186.888,179.877,190.043,180.735,190.746z"/>
	<path style="fill:#683C11;" d="M244.845,190.738c-0.891,0.703,0.015-2.606-9.982-3.254c-2.806-0.184-10.376,1.443-10.292-0.082
		c0.08-1.522-0.469-4.057,2.348-4.136c4.28-0.121,10.595-0.003,13.643,1.569C244.678,186.961,245.74,190.037,244.845,190.738z"/>
	<path style="fill:#F9BB8D;" d="M176.514,208.924c0,5.939-4.814,10.754-10.752,10.754s-10.754-4.814-10.754-10.754
		c0-5.938,4.816-10.753,10.754-10.753S176.514,202.985,176.514,208.924z"/>
	<path style="fill:#F9BB8D;" d="M270.088,208.924c0,5.939-4.812,10.754-10.75,10.754c-5.937,0-10.752-4.814-10.752-10.754
		c0-5.938,4.814-10.753,10.752-10.753C265.276,198.171,270.088,202.985,270.088,208.924z"/>
	<path style="fill:#7D4E24;" d="M259.338,134.934c6.89,8.252,8.591,22.672,8.386,43.837c-0.083,8.789-5.342,22.073-7.518,29.423
		c-1.215,4.109-5.339,0-5.339,0s4.062-5.299,3.1-12.281c-0.862-6.254-6.899-13.666-4.68-23.01
		c-4.7-18.056-38.938-1.438-38.938-1.438s-37.835-17.673-38.797,2.031c-0.356,7.28-3.47,15.944-4.354,24.675
		c-0.789,7.833,1.892,16.125,1.892,16.125s-4.816,0.415-5.949-4.208c-2.467-10.088-7.803-16.201-8.602-22.011
		c-1.186-8.647,3.183-43.989,11.163-53.144C177.686,125.78,252.449,126.682,259.338,134.934z"/>
	<path style="fill:#432918;" d="M195.307,203.182c0,2.768-2.246,5.012-5.013,5.012s-5.009-2.244-5.009-5.012
		c0-2.767,2.242-5.011,5.009-5.011S195.307,200.415,195.307,203.182z"/>
	<path style="fill:#432918;" d="M239.836,203.182c0,2.768-2.241,5.012-5.008,5.012c-2.768,0-5.014-2.244-5.014-5.012
		c0-2.767,2.246-5.011,5.014-5.011C237.595,198.171,239.836,200.415,239.836,203.182z"/>
	<path style="fill:#EAD6D5;" d="M213.242,237.523c-4.605,0-8.941-0.891-12.248-3.205c2.416,4.935,7.053,6.411,12.248,6.411
		c5.189,0,9.607-1.477,12.027-6.414C221.957,236.633,217.846,237.523,213.242,237.523z"/>
	<path style="fill:#EAD6D5;" d="M218.063,216.958c0,0.418-1.816,0.755-4.058,0.755c-2.239,0-4.056-0.337-4.056-0.755
		c0-0.417,1.816-2.662,4.056-2.662C216.246,214.296,218.063,216.541,218.063,216.958z"/>
	<polygon style="fill:#45BABD;" points="249.932,280.09 212.73,315.978 178.252,280.138 185.768,277.938 188.206,277.938 
		212.73,303.065 239.836,277.938 242.117,277.938 	"/>
	<rect x="212.73" y="315.978" style="fill:#45BABD;" width="4.179" height="26.113"/>
	<path style="fill:#FFFFFF;" d="M225.667,320.842c0,2.1-1.701,3.802-3.802,3.802c-2.1,0-3.803-1.702-3.803-3.802
		c0-2.102,1.703-3.804,3.803-3.804C223.966,317.038,225.667,318.74,225.667,320.842z"/>
	<path style="fill:#FFFFFF;" d="M225.667,334.152c0,2.1-1.701,3.802-3.802,3.802c-2.1,0-3.803-1.702-3.803-3.802
		c0-2.1,1.703-3.802,3.803-3.802C223.966,330.351,225.667,332.053,225.667,334.152z"/>
	<path style="fill:#432918;" d="M166.825,364.092c-0.946,6.079-1.696,10.647-2.421,14.181h11.612
		c0.868-3.143,1.632-6.742,2.235-10.892c2.984-20.587,0.576-84.108-2.03-86.648c-2.608-2.539-17.017,0.938-16.823,4.93
		C159.592,289.653,169.514,346.81,166.825,364.092z"/>
	<path style="fill:#432918;" d="M249.859,378.272h11.613c-0.727-3.533-1.475-8.102-2.42-14.181
		c-2.691-17.281,7.23-74.439,7.426-78.43c0.192-3.992-14.213-7.469-16.822-4.93c-2.609,2.54-5.02,66.062-2.031,86.648
		C248.227,371.53,248.99,375.129,249.859,378.272z"/>
	<path style="fill:#45BABD;" d="M163.95,340.898l1.587,18.044c0,0-25.06,6.904-31.387-4.483
		c3.452-18.219-5.011-55.118,25.248-68.797C174.758,278.719,163.95,340.898,163.95,340.898z"/>
</g>
</svg>
